<?xml version="1.0" encoding="UTF-8"?>
<svg version="1.1" xmlns="http://www.w3.org/2000/svg" width="1024" height="1024">
<path d="M0 0 C13.71561285 1.9185029 22.14662013 4.9225273 31 16 C32.73488309 18.35161327 34.37340764 20.76008533 36 23.1875 C36.95744459 24.59825983 37.91582377 26.00838569 38.875 27.41796875 C39.63103516 28.53051025 39.63103516 28.53051025 40.40234375 29.66552734 C43.23299494 33.80163473 46.1190595 37.89884104 49 42 C53.15237788 47.91901371 57.28760878 53.84841075 61.375 59.8125 C65.82860306 66.30952094 70.31411436 72.78390447 74.8125 79.25 C75.49103027 80.22533691 76.16956055 81.20067383 76.86865234 82.20556641 C80.80158422 87.85431332 84.74747777 93.49375291 88.70263672 99.12695312 C93.55553412 106.04045325 98.36226216 112.96988541 103.015625 120.01953125 C108.72392076 128.59321169 114.63503962 137.03305362 120.5 145.5 C134.63044425 165.899407 134.63044425 165.899407 139.8125 173.75 C143.93596205 179.968854 148.22986242 186.06455096 152.51928711 192.16967773 C156.51126494 197.85717587 160.46142624 203.5708073 164.375 209.3125 C169.92982526 217.46026188 175.55131233 225.56020041 181.18994141 233.65014648 C185.06435383 239.21089715 188.92042885 244.78329151 192.75 250.375 C200.46974915 261.63177177 208.36377813 272.76153775 216.375 283.8125 C222.76192142 292.62547616 229.00641478 301.53424216 235.22949219 310.46337891 C236.99507021 312.99293705 238.76607904 315.51859665 240.5390625 318.04296875 C247.94748252 328.59348529 255.29560059 339.18257495 262.53759766 349.84814453 C263.45956525 351.20477598 264.38345528 352.56010482 265.31005859 353.91357422 C287.82737142 386.81114532 306.29261476 421.58104917 320 459 C320.30035156 459.81291504 320.60070312 460.62583008 320.91015625 461.46337891 C329.82812154 485.86392282 334.62865605 511.31892123 338 537 C338.09153854 537.6397023 338.18307709 538.2794046 338.27738953 538.93849182 C339.19046334 545.95304829 339.12645487 552.94009634 339.09765625 560.00390625 C339.0962413 561.32293442 339.09482635 562.64196259 339.09336853 564.0009613 C339.08958243 567.47789466 339.07978636 570.95478507 339.06866455 574.43170166 C339.0583656 577.99157124 339.05385288 581.55144788 339.04882812 585.11132812 C339.03815988 592.07423619 339.02113145 599.03711603 339 606 C338.34 606 337.68 606 337 606 C336.96189209 606.969375 336.92378418 607.93875 336.88452148 608.9375 C336.42441084 618.83217814 335.11627789 628.30911564 333.0625 638 C332.83732697 639.08068253 332.83732697 639.08068253 332.60760498 640.18319702 C327.62439872 663.89376019 320.43490468 687.09769435 310 709 C309.65727051 709.72026367 309.31454102 710.44052734 308.96142578 711.18261719 C307.02682744 715.20739669 305.02103018 719.18980522 302.95751953 723.14990234 C302.02486966 724.9519474 301.1180825 726.76510306 300.21484375 728.58203125 C287.29607041 754.15181332 268.97167083 777.37535817 249.43920898 798.21972656 C246.92359867 800.89497189 246.92359867 800.89497189 245 804 C244.34 804 243.68 804 243 804 C242.731875 804.639375 242.46375 805.27875 242.1875 805.9375 C241 808 241 808 238 809 C237.57847656 809.86238281 237.57847656 809.86238281 237.1484375 810.7421875 C235.57209899 813.84124756 233.1868243 815.84957826 230.625 818.125 C230.0897168 818.60654541 229.55443359 819.08809082 229.00292969 819.58422852 C163.38009146 878.23920533 75.83544265 913.26012413 -12.75390625 908.72265625 C-74.27863268 905.04164864 -135.43010278 885.71312393 -186 850 C-187.22525519 849.14582584 -188.45051567 848.29165926 -189.67578125 847.4375 C-195.8358155 843.11373246 -201.83906804 838.65230424 -207.66796875 833.88671875 C-210.84102601 831.31957192 -214.10836802 828.88131791 -217.3828125 826.4453125 C-217.91648437 825.96835937 -218.45015625 825.49140625 -219 825 C-219 824.34 -219 823.68 -219 823 C-219.556875 822.7525 -220.11375 822.505 -220.6875 822.25 C-225.51803849 819.63889811 -229.1627927 815.86521612 -233 812 C-233.87398438 811.13761719 -234.74796875 810.27523437 -235.6484375 809.38671875 C-250.40841055 794.77476835 -250.40841055 794.77476835 -252 790 C-252.99 789.67 -253.98 789.34 -255 789 C-256.63602107 787.09524623 -258.13835075 785.20320797 -259.625 783.1875 C-260.06521484 782.60145996 -260.50542969 782.01541992 -260.95898438 781.41162109 C-261.87032885 780.19725785 -262.77883896 778.98076256 -263.68457031 777.76220703 C-264.87796686 776.16348093 -266.09029034 774.57892666 -267.3046875 772.99609375 C-305 723.69706406 -305 723.69706406 -305 708 C-305.66 707.67 -306.32 707.34 -307 707 C-307.9706289 704.82072174 -308.81861441 702.67827698 -309.625 700.4375 C-309.88224854 699.73206055 -310.13949707 699.02662109 -310.40454102 698.29980469 C-311.28141981 695.8705679 -312.14172553 693.43586909 -313 691 C-313.31275879 690.1229541 -313.62551758 689.2459082 -313.94775391 688.34228516 C-341.61093818 610.26940413 -339.11163704 529.29687978 -311.87695312 451.55371094 C-311.28511485 449.83026206 -310.71656135 448.09866508 -310.16992188 446.36035156 C-309.91275391 445.54276367 -309.65558594 444.72517578 -309.390625 443.8828125 C-309.05853027 442.79444092 -309.05853027 442.79444092 -308.71972656 441.68408203 C-308 440 -308 440 -306 439 C-305.27275633 437.26707788 -305.27275633 437.26707788 -304.69921875 435.14453125 C-302.8873484 429.41540849 -300.41580959 424.09557089 -297.8125 418.6875 C-297.0383374 417.0789917 -297.0383374 417.0789917 -296.24853516 415.43798828 C-287.72352883 398.02910725 -278.11166001 380.95607931 -267.078125 365.01171875 C-265.20499871 362.29709399 -263.43173698 359.54839962 -261.6875 356.75 C-252.02826332 341.47492804 -241.39833469 326.78813729 -231.06591797 311.96582031 C-228.99073869 308.98670452 -226.91868217 306.00544187 -224.84765625 303.0234375 C-216.47973883 290.97625666 -208.06015648 278.96785177 -199.58203125 266.99804688 C-186.72218094 248.83571034 -174.03143021 230.55830404 -161.48632812 212.17724609 C-154.46280823 201.88885081 -147.36750755 191.65707713 -140.171875 181.48828125 C-131.08815095 168.64626611 -122.10496332 155.73598516 -113.20996094 142.76269531 C-97.86554398 120.40864156 -82.42895075 98.09560125 -66.60913086 76.07495117 C-63.57599243 71.83971089 -60.62446286 67.55233313 -57.6875 63.25 C-53.23490961 56.72948666 -48.63782454 50.32535237 -43.99047852 43.94262695 C-39.3868109 37.59441161 -34.94800296 31.14173572 -30.57666016 24.6315918 C-17.18735387 4.81672053 -17.18735387 4.81672053 -6.359375 2.4140625 C-3.875 2.125 -3.875 2.125 0 2 C0 1.34 0 0.68 0 0 Z M130.04296875 394.0234375 C129.43066406 395.12945312 128.81835938 396.23546875 128.1875 397.375 C127.8469458 397.98802979 127.5063916 398.60105957 127.15551758 399.23266602 C126.0948293 401.15039237 125.04726133 403.07491632 124 405 C123.3709375 406.13566406 122.741875 407.27132813 122.09375 408.44140625 C117.72743781 416.44929439 113.74047861 424.61083972 109.83618164 432.85253906 C106.77355096 439.31130854 103.66897917 445.74730707 100.52734375 452.16796875 C99.93321686 453.38225807 99.93321686 453.38225807 99.3270874 454.62107849 C98.50870159 456.2935047 97.69030133 457.96592383 96.87188721 459.63833618 C89.84008566 474.01430699 82.937558 488.43452727 76.24609375 502.97265625 C72.50834047 511.08995217 68.6897078 519.16868688 64.875 527.25 C60.16828327 537.22293527 55.50602765 547.21274222 50.9375 557.25 C47.74987943 564.25125759 44.45424833 571.15606505 40.96484375 578.01171875 C38.23889944 583.46505657 35.73727858 589.02539541 33.1875 594.5625 C28.16133156 605.43400459 23.06223165 616.26938405 17.86196899 627.05880737 C17.08955331 628.66431205 16.32023564 630.27131154 15.55429077 631.87991333 C10.99492791 641.44594014 6.22641746 650.38857164 0 659 C-0.4319165 659.60199219 -0.86383301 660.20398438 -1.30883789 660.82421875 C-10.68837011 673.50119351 -22.62298895 682.65634023 -38.2421875 685.625 C-52.93782113 687.09150814 -66.4799893 681.82980762 -78 673 C-92.40511001 659.87101835 -99.58223488 641.90925068 -107.41650391 624.50195312 C-110.0720376 618.62915398 -112.78964531 612.78514575 -115.5 606.9375 C-118.72012531 599.98120704 -121.90969224 593.01498246 -125 586 C-125.95055698 583.84738349 -126.9015898 581.6949803 -127.85351562 579.54296875 C-128.4822502 578.12159324 -129.10989351 576.6997344 -129.73632812 575.27734375 C-132.12965993 569.87428884 -134.61549938 564.51627401 -137.12016296 559.16419983 C-140.61414731 551.69576163 -144.06956505 544.20968819 -147.51660156 536.71948242 C-148.25820106 535.1090354 -149.00072087 533.49901186 -149.74414062 531.8894043 C-153.6316026 523.47195983 -157.4892273 515.0669565 -160.93823242 506.45727539 C-162.34636978 503.19838772 -164.05776438 500.17114061 -165.88671875 497.1328125 C-167 495 -167 495 -167.88671875 492.26953125 C-171.13381679 482.733317 -176.6106332 469.75461553 -186 465 C-189.14443806 464.17622339 -189.14443806 464.17622339 -192 466 C-197.66384265 471.95464293 -201.07210866 478.73002534 -204.1875 486.25 C-204.61893311 487.27359619 -205.05036621 488.29719238 -205.49487305 489.35180664 C-211.6705546 504.19962151 -214.97574378 519.24985656 -218 535 C-218.23976563 536.22460938 -218.47953125 537.44921875 -218.7265625 538.7109375 C-227.78004343 592.35619017 -214.02093269 652.25901295 -183.07861328 696.85546875 C-181.10531783 699.61336413 -179.06525603 702.30996063 -177 705 C-176.34644531 705.86496094 -175.69289063 706.72992187 -175.01953125 707.62109375 C-157.29348616 730.46393536 -135.48533107 748.82217465 -111 764 C-109.94941406 764.66 -108.89882813 765.32 -107.81640625 766 C-93.64730061 774.61297059 -77.89989462 780.47342056 -62 785 C-61.00613281 785.30808594 -60.01226562 785.61617187 -58.98828125 785.93359375 C-39.61328842 791.61132825 -19.13720372 793.72013994 1 794 C1.80775879 794.01321289 2.61551758 794.02642578 3.44775391 794.04003906 C39.09428039 794.36011328 75.41532097 785.379217 107 769 C107 768.34 107 767.68 107 767 C107.73863281 766.88390381 108.47726562 766.76780762 109.23828125 766.64819336 C112.01903587 765.99553216 113.78780882 765.14418967 116.1875 763.62890625 C116.96230713 763.14204346 117.73711426 762.65518066 118.53540039 762.15356445 C119.34871826 761.62851318 120.16203613 761.10346191 121 760.5625 C121.84361084 760.02262451 122.68722168 759.48274902 123.55639648 758.92651367 C133.72988491 752.33819937 143.0912671 745.07789107 151.9765625 736.8125 C154 735 154 735 157 733 C157 732.34 157 731.68 157 731 C157.55558594 730.77828125 158.11117188 730.5565625 158.68359375 730.328125 C168.47861298 724.71209374 176.25464819 711.92037224 183 703 C183.90298828 701.82630859 183.90298828 701.82630859 184.82421875 700.62890625 C219.11854811 654.04508356 231.36641459 593.36672599 223.375 536.75 C218.39436489 504.14735951 207.73927747 471.96474911 190.6015625 443.67578125 C189.03294262 441.05503827 187.60521686 438.39225033 186.1875 435.6875 C176.76697451 418.29961519 163.07679604 395.03839802 145 386 C137.06534848 385.21954247 134.49568379 387.1443927 130.04296875 394.0234375 Z " fill="#13CCFE" transform="translate(509,64)"/>
<path d="M0 0 C1.00585501 3.33669974 1.12099822 6.361397 1.11352539 9.83837891 C1.11344986 11.01284576 1.11337433 12.18731262 1.11329651 13.39736938 C1.10813522 14.66100311 1.10297394 15.92463684 1.09765625 17.2265625 C1.0962413 18.52572601 1.09482635 19.82488953 1.09336853 21.16342163 C1.08955791 24.61171404 1.07974263 28.05996405 1.06866455 31.50823975 C1.05843416 35.02111236 1.05386343 38.53399178 1.04882812 42.046875 C1.03926164 48.21344406 1.02475857 54.37998914 1.00672913 60.54653931 C1.00265762 62.03102232 1 63.51551141 1 65 C0.36959957 66.35085807 -0.30251417 67.68252676 -1 69 C-1.37125 69.7425 -1.7425 70.485 -2.125 71.25 C-2.41375 71.8275 -2.7025 72.405 -3 73 C-3.33 73 -3.66 73 -4 73 C-3.52183772 67.08616184 -3.02636232 61.17662245 -2.4296875 55.2734375 C-1.05003765 40.98093927 -1.0711414 27.10422086 -1.87402344 12.77734375 C-2.0523077 8.8467977 -2.04097854 4.93393974 -2 1 C-1.34 0.67 -0.68 0.34 0 0 Z " fill="#1FC0FD" transform="translate(735,604)"/>
<path d="M0 0 C0.66 0.66 1.32 1.32 2 2 C-0.00310533 6.34431443 -2.27947031 9.79787551 -5.375 13.4375 C-8.78899658 17.51424632 -11.98444405 21.62258007 -15 26 C-15.66 25.67 -16.32 25.34 -17 25 C-16.62713867 24.45585449 -16.25427734 23.91170898 -15.87011719 23.35107422 C-14.16302545 20.85931368 -12.45650843 18.36716006 -10.75 15.875 C-10.16347656 15.0190625 -9.57695312 14.163125 -8.97265625 13.28125 C-5.95405793 8.87206145 -2.95055016 4.4550386 0 0 Z M-18 26 C-17.34 26.66 -16.68 27.32 -16 28 C-16.66 28 -17.32 28 -18 28 C-18 27.34 -18 26.68 -18 26 Z " fill="#12DEFC" transform="translate(277,377)"/>
<path d="M0 0 C0.33 0 0.66 0 1 0 C1 5.28 1 10.56 1 16 C1.66 16 2.32 16 3 16 C3 21.28 3 26.56 3 32 C2.01 32.495 2.01 32.495 1 33 C0.03534509 25.77648171 -0.11956114 18.71937932 -0.0625 11.4375 C-0.05798828 10.33341797 -0.05347656 9.22933594 -0.04882812 8.09179688 C-0.0371514 5.394473 -0.02077525 2.69726653 0 0 Z " fill="#23BFFB" transform="translate(175,626)"/>
<path d="M0 0 C0.66 0.99 1.32 1.98 2 3 C0.54957175 5.61077085 -0.74650099 7.76285576 -2.9375 9.8125 C-5.77675938 12.8238357 -7.29369319 16.26064677 -9 20 C-9.99 19.67 -10.98 19.34 -12 19 C-10.70369101 16.30326081 -9.2862657 13.81034386 -7.6171875 11.328125 C-7.17246094 10.66425781 -6.72773438 10.00039063 -6.26953125 9.31640625 C-5.80933594 8.63449219 -5.34914063 7.95257813 -4.875 7.25 C-4.40707031 6.55261719 -3.93914062 5.85523438 -3.45703125 5.13671875 C-2.30677705 3.42307474 -1.15366914 1.71134684 0 0 Z " fill="#0DE8FD" transform="translate(328,304)"/>
<path d="M0 0 C0.99 0.495 0.99 0.495 2 1 C2 1.99 2 2.98 2 4 C2.66 4.33 3.32 4.66 4 5 C4.31241371 7.54941373 4.51303421 10.00361513 4.625 12.5625 C4.66367188 13.27341797 4.70234375 13.98433594 4.7421875 14.71679688 C4.83671783 16.47742425 4.91945817 18.23867728 5 20 C4.34 20 3.68 20 3 20 C2.49395076 17.60530271 1.99500483 15.20948283 1.5 12.8125 C1.28537109 11.80219727 1.28537109 11.80219727 1.06640625 10.77148438 C0.31930158 7.12490207 -0.17352282 3.72351043 0 0 Z " fill="#23B7FB" transform="translate(180,692)"/>
<path d="M0 0 C0 0.33 0 0.66 0 1 C-14.59681093 3.29612756 -14.59681093 3.29612756 -22 3 C-22 2.34 -22 1.68 -22 1 C-14.4675474 -0.69745411 -7.64548431 -1.85345074 0 0 Z " fill="#24A6FD" transform="translate(561,968)"/>
<path d="M0 0 C0.66 0.33 1.32 0.66 2 1 C-0.9826263 6.7266425 -4.62294157 11.26638344 -9 16 C-9.66 15.67 -10.32 15.34 -11 15 C-7.37 10.05 -3.74 5.1 0 0 Z " fill="#1DB5FE" transform="translate(696,760)"/>
<path d="M0 0 C0.66 0 1.32 0 2 0 C0.9007105 6.31121503 -0.58137942 12.06338584 -3 18 C-3.66 18 -4.32 18 -5 18 C-3.9007105 11.68878497 -2.41862058 5.93661416 0 0 Z " fill="#20B6FC" transform="translate(835,720)"/>
<path d="M0 0 C2.42594434 3.94215956 2.59447962 7.45296233 1.546875 11.94140625 C1.06699548 13.63812314 0.53740289 15.32061598 0 17 C-0.66 16.67 -1.32 16.34 -2 16 C-1.85833643 14.08302063 -1.71150416 12.16642277 -1.5625 10.25 C-1.48128906 9.18265625 -1.40007812 8.1153125 -1.31640625 7.015625 C-1.05909227 4.56320038 -0.68187782 2.36078709 0 0 Z " fill="#1FC5FC" transform="translate(183,564)"/>
<path d="M0 0 C0.66 0.33 1.32 0.66 2 1 C0.02 5.29 -1.96 9.58 -4 14 C-6 10 -6 10 -5.125 7.25 C-4.75375 6.5075 -4.3825 5.765 -4 5 C-3.34 5 -2.68 5 -2 5 C-1.34 3.35 -0.68 1.7 0 0 Z " fill="#1DBEFE" transform="translate(525,691)"/>
<path d="M0 0 C0.66 0 1.32 0 2 0 C1.70867187 0.57363281 1.41734375 1.14726562 1.1171875 1.73828125 C0.40518547 3.17971194 -0.2802887 4.63477146 -0.9296875 6.10546875 C-1.24164063 6.79253906 -1.55359375 7.47960937 -1.875 8.1875 C-2.18179688 8.88230469 -2.48859375 9.57710938 -2.8046875 10.29296875 C-4 12 -4 12 -6.1328125 12.73828125 C-7.05707031 12.86783203 -7.05707031 12.86783203 -8 13 C-6.5360077 9.93124691 -4.85990364 7.09565257 -3 4.25 C-2.484375 3.45078125 -1.96875 2.6515625 -1.4375 1.828125 C-0.963125 1.22484375 -0.48875 0.6215625 0 0 Z " fill="#13DCFC" transform="translate(256,408)"/>
<path d="M0 0 C0.66 0.33 1.32 0.66 2 1 C0.35 5.29 -1.3 9.58 -3 14 C-3.66 13.67 -4.32 13.34 -5 13 C-4.54554036 11.58208592 -4.08625056 10.16571954 -3.625 8.75 C-3.24214844 7.56664062 -3.24214844 7.56664062 -2.8515625 6.359375 C-2.04826333 4.13372042 -1.10288338 2.09068328 0 0 Z " fill="#1FB9FE" transform="translate(720,714)"/>
<path d="M0 0 C0.66 0 1.32 0 2 0 C1.01 5.61 0.02 11.22 -1 17 C-1.33 17 -1.66 17 -2 17 C-3.11477625 10.32477353 -3.26584133 6.00914805 0 0 Z " fill="#22B6FB" transform="translate(842,690)"/>
<path d="M0 0 C0.66 0.66 1.32 1.32 2 2 C-2.455 7.94 -2.455 7.94 -7 14 C-7.66 13.34 -8.32 12.68 -9 12 C-7 9 -7 9 -5 8.0625 C-1.65925719 6.28773038 -1.15189871 3.45569612 0 0 Z " fill="#21ABFC" transform="translate(784,827)"/>
<path d="M0 0 C3.82300753 1.27433584 5.44975635 2.89835231 8 6 C8.3125 9.3125 8.3125 9.3125 8 12 C4.02502456 8.59287819 2.13206212 4.67239145 0 0 Z " fill="#23AAFB" transform="translate(224,810)"/>
<path d="M0 0 C0 3 0 3 0 3 Z M-2 3 C-1.67 3.66 -1.34 4.32 -1 5 C-4.09677419 11.42293907 -4.09677419 11.42293907 -7.25 13.4375 C-8.11625 13.7159375 -8.11625 13.7159375 -9 14 C-6.84921278 10.14341602 -4.76544722 6.45680903 -2 3 Z " fill="#0FE4FC" transform="translate(315,323)"/>
<path d="M0 0 C0.66 0.33 1.32 0.66 2 1 C1.57405412 2.44096586 1.13373367 3.87768712 0.6875 5.3125 C0.44386719 6.11300781 0.20023438 6.91351562 -0.05078125 7.73828125 C-1.04182023 10.09964573 -2.08074943 11.33879993 -4 13 C-3.71517632 11.58194169 -3.42181856 10.16559621 -3.125 8.75 C-2.96257813 7.96109375 -2.80015625 7.1721875 -2.6328125 6.359375 C-2.00849925 4.03168856 -1.15161458 2.10968048 0 0 Z " fill="#1BC2FD" transform="translate(547,643)"/>
<path d="M0 0 C4.41309542 3.15221101 7.00793014 6.55463907 10 11 C9.67 11.66 9.34 12.32 9 13 C7.4941255 11.21326795 5.9954515 9.42046492 4.5 7.625 C3.6646875 6.62726563 2.829375 5.62953125 1.96875 4.6015625 C0 2 0 2 0 0 Z " fill="#16DAFE" transform="translate(669,461)"/>
<path d="M0 0 C0.33 0.99 0.66 1.98 1 3 C-0.8125 6 -0.8125 6 -3 9 C-3.99 10.485 -3.99 10.485 -5 12 C-5.66 12 -6.32 12 -7 12 C-5.44298069 7.32894208 -2.91552627 3.91294315 0 0 Z " fill="#0DE9FC" transform="translate(338,290)"/>
<path d="M0 0 C1.39456452 0.00667256 2.78911118 0.01863093 4.18359375 0.03515625 C4.89451172 0.03966797 5.60542969 0.04417969 6.33789062 0.04882812 C8.09899388 0.06064761 9.86005411 0.07858362 11.62109375 0.09765625 C10.63109375 1.58265625 10.63109375 1.58265625 9.62109375 3.09765625 C6.87109375 3.4609375 6.87109375 3.4609375 3.62109375 3.41015625 C2.01234375 3.40435547 2.01234375 3.40435547 0.37109375 3.3984375 C-2.37890625 3.09765625 -2.37890625 3.09765625 -4.37890625 1.09765625 C-3.37890625 0.09765625 -3.37890625 0.09765625 0 0 Z " fill="#1DACFE" transform="translate(511.37890625,856.90234375)"/>
<path d="M0 0 C1.485 0.99 1.485 0.99 3 2 C3.29296875 4.1640625 3.29296875 4.1640625 3.1875 6.625 C3.16042969 7.44226563 3.13335937 8.25953125 3.10546875 9.1015625 C3.07066406 9.72804688 3.03585938 10.35453125 3 11 C2.01 11.495 2.01 11.495 1 12 C0.67 8.04 0.34 4.08 0 0 Z " fill="#1DBDFD" transform="translate(176,662)"/>
<path d="M0 0 C0.33 0.99 0.66 1.98 1 3 C-0.28062485 4.7074998 -1.61767557 6.37373596 -3 8 C-3.33 8.99 -3.66 9.98 -4 11 C-4.99 10.67 -5.98 10.34 -7 10 C-3.535 5.05 -3.535 5.05 0 0 Z " fill="#12E2FD" transform="translate(290,359)"/>
<path d="M0 0 C0.99 0.33 1.98 0.66 3 1 C3 1.66 3 2.32 3 3 C3.66 3 4.32 3 5 3 C5 4.32 5 5.64 5 7 C5.66 7.33 6.32 7.66 7 8 C6.01 9.485 6.01 9.485 5 11 C3.35 7.37 1.7 3.74 0 0 Z " fill="#1BBDFE" transform="translate(407,701)"/>
<path d="M0 0 C0.66 0.33 1.32 0.66 2 1 C2 1.99 2 2.98 2 4 C1.34 4 0.68 4 0 4 C-0.33 4.99 -0.66 5.98 -1 7 C-3.0625 8.1875 -3.0625 8.1875 -5 9 C-3.7508258 5.54074837 -2.32472205 2.85306797 0 0 Z " fill="#10E1FD" transform="translate(296,350)"/>
<path d="M0 0 C0.99 0 1.98 0 3 0 C2.01 3.3 1.02 6.6 0 10 C-2 6 -2 6 -1.125 2.75 C-0.75375 1.8425 -0.3825 0.935 0 0 Z " fill="#21B2FC" transform="translate(824,752)"/>
<path d="M0 0 C0.33 0 0.66 0 1 0 C1.36630156 3.93774177 1.30233203 5.56539771 -1 8.875 C-1.66 9.57625 -2.32 10.2775 -3 11 C-3.33 10.34 -3.66 9.68 -4 9 C-3.22265625 6.8359375 -3.22265625 6.8359375 -2.0625 4.375 C-1.68222656 3.55773437 -1.30195312 2.74046875 -0.91015625 1.8984375 C-0.60980469 1.27195312 -0.30945313 0.64546875 0 0 Z " fill="#20B6FD" transform="translate(711,733)"/>
<path d="M0 0 C0.33 0 0.66 0 1 0 C1 3.3 1 6.6 1 10 C0.01 10.33 -0.98 10.66 -2 11 C-1 3.57142857 -1 3.57142857 0 0 Z " fill="#21BBFD" transform="translate(727,690)"/>
<path d="M0 0 C0.33 0 0.66 0 1 0 C1 3.3 1 6.6 1 10 C0.01 10 -0.98 10 -2 10 C-1.54177532 6.53058454 -1.10868317 3.32604951 0 0 Z " fill="#1FC9FC" transform="translate(191,534)"/>
<path d="M0 0 C0.66 0 1.32 0 2 0 C2.67154933 1.28913487 3.33708859 2.58140204 4 3.875 C4.37125 4.59429687 4.7425 5.31359375 5.125 6.0546875 C6 8 6 8 6 10 C5.34 10 4.68 10 4 10 C3.32845067 8.71086513 2.66291141 7.41859796 2 6.125 C1.62875 5.40570313 1.2575 4.68640625 0.875 3.9453125 C0 2 0 2 0 0 Z " fill="#18D6FC" transform="translate(807,476)"/>
<path d="M0 0 C0.33 0 0.66 0 1 0 C1 1.98 1 3.96 1 6 C-0.98 6.99 -2.96 7.98 -5 9 C-3.75471468 5.55151758 -2.38532951 2.80016942 0 0 Z " fill="#08F8FC" transform="translate(455,122)"/>
<path d="M0 0 C2.59482129 2.59482129 2.69990302 4.39883625 3 8 C2.34 8.66 1.68 9.32 1 10 C0.63883954 8.5225254 0.28624952 7.04295325 -0.0625 5.5625 C-0.25972656 4.73878906 -0.45695313 3.91507813 -0.66015625 3.06640625 C-0.82837891 2.04353516 -0.82837891 2.04353516 -1 1 C-0.67 0.67 -0.34 0.34 0 0 Z " fill="#1FB4FD" transform="translate(185,712)"/>
<path d="M0 0 C1.125 1.625 1.125 1.625 2 4 C1.125 7.25 1.125 7.25 0 10 C-0.33 10 -0.66 10 -1 10 C-1.33 7.03 -1.66 4.06 -2 1 C-1.34 0.67 -0.68 0.34 0 0 Z " fill="#1FBAFC" transform="translate(179,675)"/>
<path d="M0 0 C3.08089673 2.77280706 4.68775452 5.06326356 6 9 C2.70851757 7.86500606 2.0040131 7.00716624 0.25 3.875 C-0.1625 2.92625 -0.575 1.9775 -1 1 C-0.67 0.67 -0.34 0.34 0 0 Z " fill="#14DEFD" transform="translate(776,422)"/>
<path d="M0 0 C0.66 0.66 1.32 1.32 2 2 C0.75 4.9375 0.75 4.9375 -1 8 C-3.1875 8.875 -3.1875 8.875 -5 9 C-3.7508258 5.54074837 -2.32472205 2.85306797 0 0 Z " fill="#09F4FC" transform="translate(417,176)"/>
<path d="M0 0 C0.66 0.66 1.32 1.32 2 2 C1.21654285 3.17219543 0.42297164 4.33763668 -0.375 5.5 C-0.81585938 6.1496875 -1.25671875 6.799375 -1.7109375 7.46875 C-2.13632812 7.9740625 -2.56171875 8.479375 -3 9 C-3.66 9 -4.32 9 -5 9 C-3.7508258 5.54074837 -2.32472205 2.85306797 0 0 Z " fill="#07F5FD" transform="translate(424,166)"/>
<path d="M0 0 C-4.1795645 2.78637633 -6.14668677 1.79562512 -11 1 C-11 0.67 -11 0.34 -11 0 C-3.57142857 -1.28571429 -3.57142857 -1.28571429 0 0 Z " fill="#21AEFD" transform="translate(553,855)"/>
<path d="M0 0 C0.66 0 1.32 0 2 0 C0.6302836 3.99500618 -1.25722422 6.80009492 -4 10 C-4 5.75354935 -2.18249194 3.61475228 0 0 Z " fill="#20ADFB" transform="translate(801,802)"/>
<path d="M0 0 C3.86107457 2.57404971 3.94319692 4.61020259 5 9 C4.01 9.495 4.01 9.495 3 10 C0 3.375 0 3.375 0 0 Z " fill="#1EB8FD" transform="translate(310,734)"/>
<path d="M0 0 C0.66 0 1.32 0 2 0 C1.25 5.75 1.25 5.75 -1 8 C-2.2077558 4.37673261 -1.54311128 3.35853631 0 0 Z " fill="#1DC1FC" transform="translate(537,664)"/>
<path d="M0 0 C0.66 0.33 1.32 0.66 2 1 C0.02 3.31 -1.96 5.62 -4 8 C-4.33 7.01 -4.66 6.02 -5 5 C-3.35 3.35 -1.7 1.7 0 0 Z " fill="#21AAFB" transform="translate(765,852)"/>
<path d="M0 0 C0.66 0.66 1.32 1.32 2 2 C-2.75 5 -2.75 5 -5 5 C-5 4.01 -5 3.02 -5 2 C-3.35 1.34 -1.7 0.68 0 0 Z " fill="#20B0FD" transform="translate(621,829)"/>
<path d="M0 0 C0.66 0 1.32 0 2 0 C1.34 2.64 0.68 5.28 0 8 C-1.125 6.25 -1.125 6.25 -2 4 C-1.125 1.75 -1.125 1.75 0 0 Z " fill="#1EB3FB" transform="translate(828,744)"/>
<path d="M0 0 C3 1 3 1 4.1875 3.0625 C4.455625 3.701875 4.72375 4.34125 5 5 C4.01 6.485 4.01 6.485 3 8 C0 2.25 0 2.25 0 0 Z " fill="#1ABFFE" transform="translate(393,670)"/>
<path d="M0 0 C0.66 0.33 1.32 0.66 2 1 C1.8125 2.875 1.8125 2.875 1 5 C-1.5625 6.25 -1.5625 6.25 -4 7 C-2.68 4.69 -1.36 2.38 0 0 Z " fill="#10EBFD" transform="translate(343,283)"/>
<path d="M0 0 C0.66 0.66 1.32 1.32 2 2 C1.21654285 3.17219543 0.42297164 4.33763668 -0.375 5.5 C-0.81585938 6.1496875 -1.25671875 6.799375 -1.7109375 7.46875 C-2.13632812 7.9740625 -2.56171875 8.479375 -3 9 C-3.66 9 -4.32 9 -5 9 C-3.50163895 5.88801935 -1.80066242 2.9465385 0 0 Z " fill="#0DECFD" transform="translate(353,268)"/>
<path d="M0 0 C0.33 0.99 0.66 1.98 1 3 C-0.9375 5.6875 -0.9375 5.6875 -3 8 C-3.66 7.67 -4.32 7.34 -5 7 C-3.35 4.69 -1.7 2.38 0 0 Z " fill="#0CF0FC" transform="translate(375,237)"/>
<path d="M0 0 C0.33 0 0.66 0 1 0 C1.375 2.25 1.375 2.25 1 5 C-2 7.3125 -2 7.3125 -5 9 C-3.50164236 5.88802644 -1.86022073 2.91164984 0 0 Z " fill="#09F8FC" transform="translate(471,99)"/>
<path d="" fill="#28B6F7" transform="translate(0,0)"/>
<path d="M0 0 C2 1 2 1 2 1 Z " fill="#27A2F9" transform="translate(574,967)"/>
<path d="M0 0 C2 1 2 1 2 1 Z " fill="#29A4FC" transform="translate(440,966)"/>
<path d="" fill="#28A1F3" transform="translate(0,0)"/>
<path d="" fill="#2CA3F4" transform="translate(0,0)"/>
<path d="M0 0 C2 1 2 1 2 1 Z " fill="#21AEFD" transform="translate(649,808)"/>
<path d="M0 0 C2 1 2 1 2 1 Z " fill="#2AABF6" transform="translate(194,755)"/>
<path d="" fill="#28AFF5" transform="translate(0,0)"/>
<path d="" fill="#29B1F6" transform="translate(0,0)"/>
<path d="" fill="#21BFFD" transform="translate(0,0)"/>
<path d="" fill="#22C5FE" transform="translate(0,0)"/>
<path d="M0 0 C2 1 2 1 2 1 Z " fill="#1CC8FD" transform="translate(362,608)"/>
<path d="" fill="#1ACFFC" transform="translate(0,0)"/>
<path d="" fill="#22C7F5" transform="translate(0,0)"/>
<path d="M0 0 C2 1 2 1 2 1 Z " fill="#1ADEFD" transform="translate(649,451)"/>
<path d="" fill="#0DE8F9" transform="translate(0,0)"/>
<path d="M0 0 C2 1 2 1 2 1 Z " fill="#12EEF7" transform="translate(505,64)"/>
<path d="" fill="#484E54" transform="translate(0,0)"/>
<path d="" fill="#2BA2F7" transform="translate(0,0)"/>
<path d="" fill="#28A6FA" transform="translate(0,0)"/>
<path d="" fill="#2DA4FA" transform="translate(0,0)"/>
<path d="" fill="#28A6FA" transform="translate(0,0)"/>
<path d="" fill="#2AA7FA" transform="translate(0,0)"/>
<path d="" fill="#2AA4F7" transform="translate(0,0)"/>
<path d="" fill="#2AA4F8" transform="translate(0,0)"/>
<path d="" fill="#2BA5FE" transform="translate(0,0)"/>
<path d="" fill="#2DA5F8" transform="translate(0,0)"/>
<path d="" fill="#464E53" transform="translate(0,0)"/>
<path d="" fill="#28A4FA" transform="translate(0,0)"/>
<path d="" fill="#434B52" transform="translate(0,0)"/>
<path d="" fill="#2AA5F8" transform="translate(0,0)"/>
<path d="" fill="#2AA4F9" transform="translate(0,0)"/>
<path d="" fill="#28A1F8" transform="translate(0,0)"/>
<path d="" fill="#2AA3F8" transform="translate(0,0)"/>
<path d="" fill="#2AA5F9" transform="translate(0,0)"/>
<path d="" fill="#29A0F6" transform="translate(0,0)"/>
<path d="" fill="#2BA4FB" transform="translate(0,0)"/>
<path d="" fill="#2CA4F9" transform="translate(0,0)"/>
<path d="" fill="#26A5F9" transform="translate(0,0)"/>
<path d="" fill="#434C51" transform="translate(0,0)"/>
<path d="" fill="#2B9EF8" transform="translate(0,0)"/>
<path d="" fill="#3C5364" transform="translate(0,0)"/>
<path d="" fill="#29A3F5" transform="translate(0,0)"/>
<path d="" fill="#25A1F6" transform="translate(0,0)"/>
<path d="" fill="#29A5F7" transform="translate(0,0)"/>
<path d="" fill="#299FF3" transform="translate(0,0)"/>
<path d="" fill="#299EF1" transform="translate(0,0)"/>
<path d="" fill="#2AA2F4" transform="translate(0,0)"/>
<path d="" fill="#495055" transform="translate(0,0)"/>
<path d="" fill="#2AA3F4" transform="translate(0,0)"/>
<path d="" fill="#2AA3F5" transform="translate(0,0)"/>
<path d="" fill="#2CA6F5" transform="translate(0,0)"/>
<path d="" fill="#2A9EF2" transform="translate(0,0)"/>
<path d="" fill="#2A9CEE" transform="translate(0,0)"/>
<path d="" fill="#436579" transform="translate(0,0)"/>
<path d="" fill="#27A1F6" transform="translate(0,0)"/>
<path d="" fill="#24AEFD" transform="translate(0,0)"/>
<path d="" fill="#2AA1F4" transform="translate(0,0)"/>
<path d="" fill="#23ADFB" transform="translate(0,0)"/>
<path d="" fill="#27A1F5" transform="translate(0,0)"/>
<path d="" fill="#2DA3F3" transform="translate(0,0)"/>
<path d="" fill="#27B1FD" transform="translate(0,0)"/>
<path d="" fill="#27B0FC" transform="translate(0,0)"/>
<path d="" fill="#25B1FE" transform="translate(0,0)"/>
<path d="" fill="#24AFFF" transform="translate(0,0)"/>
<path d="" fill="#28A8F7" transform="translate(0,0)"/>
<path d="" fill="#28AEFD" transform="translate(0,0)"/>
<path d="" fill="#26B0FD" transform="translate(0,0)"/>
<path d="" fill="#505863" transform="translate(0,0)"/>
<path d="" fill="#23ADFD" transform="translate(0,0)"/>
<path d="" fill="#29A4F3" transform="translate(0,0)"/>
<path d="" fill="#2BA4F4" transform="translate(0,0)"/>
<path d="" fill="#29A9F4" transform="translate(0,0)"/>
<path d="" fill="#2CA5F1" transform="translate(0,0)"/>
<path d="" fill="#23B0FC" transform="translate(0,0)"/>
<path d="" fill="#25B0FC" transform="translate(0,0)"/>
<path d="" fill="#25A7F5" transform="translate(0,0)"/>
<path d="" fill="#2AB0FD" transform="translate(0,0)"/>
<path d="" fill="#29A8F6" transform="translate(0,0)"/>
<path d="" fill="#27A6F4" transform="translate(0,0)"/>
<path d="" fill="#28A7F1" transform="translate(0,0)"/>
<path d="" fill="#21B2FF" transform="translate(0,0)"/>
<path d="" fill="#4E616B" transform="translate(0,0)"/>
<path d="" fill="#23B0FE" transform="translate(0,0)"/>
<path d="" fill="#27AAF6" transform="translate(0,0)"/>
<path d="" fill="#20ACFC" transform="translate(0,0)"/>
<path d="" fill="#28ABF4" transform="translate(0,0)"/>
<path d="" fill="#24B5FC" transform="translate(0,0)"/>
<path d="" fill="#26B2FD" transform="translate(0,0)"/>
<path d="" fill="#25B2FD" transform="translate(0,0)"/>
<path d="" fill="#2BACF2" transform="translate(0,0)"/>
<path d="" fill="#2BABF5" transform="translate(0,0)"/>
<path d="" fill="#2DABF4" transform="translate(0,0)"/>
<path d="" fill="#21B4FE" transform="translate(0,0)"/>
<path d="" fill="#28ADF4" transform="translate(0,0)"/>
<path d="" fill="#22BAFF" transform="translate(0,0)"/>
<path d="" fill="#1EB8FD" transform="translate(0,0)"/>
<path d="" fill="#26B9FB" transform="translate(0,0)"/>
<path d="" fill="#29ADF6" transform="translate(0,0)"/>
<path d="" fill="#22BAFF" transform="translate(0,0)"/>
<path d="" fill="#24B7FD" transform="translate(0,0)"/>
<path d="" fill="#23B6FF" transform="translate(0,0)"/>
<path d="" fill="#2CAFF2" transform="translate(0,0)"/>
<path d="" fill="#29B1F4" transform="translate(0,0)"/>
<path d="" fill="#29B0F5" transform="translate(0,0)"/>
<path d="" fill="#28AEF6" transform="translate(0,0)"/>
<path d="" fill="#2DADF2" transform="translate(0,0)"/>
<path d="" fill="#1EB4FC" transform="translate(0,0)"/>
<path d="" fill="#23B5FD" transform="translate(0,0)"/>
<path d="" fill="#23B6FE" transform="translate(0,0)"/>
<path d="" fill="#27B2F7" transform="translate(0,0)"/>
<path d="" fill="#25BCFA" transform="translate(0,0)"/>
<path d="" fill="#2EB1F6" transform="translate(0,0)"/>
<path d="" fill="#24BAFE" transform="translate(0,0)"/>
<path d="" fill="#30B0F1" transform="translate(0,0)"/>
<path d="" fill="#2CB2F4" transform="translate(0,0)"/>
<path d="" fill="#20B8FF" transform="translate(0,0)"/>
<path d="" fill="#22BCFB" transform="translate(0,0)"/>
<path d="" fill="#29B3F5" transform="translate(0,0)"/>
<path d="" fill="#26BCFC" transform="translate(0,0)"/>
<path d="" fill="#22BFF9" transform="translate(0,0)"/>
<path d="" fill="#25BBFC" transform="translate(0,0)"/>
<path d="" fill="#2BB0F4" transform="translate(0,0)"/>
<path d="" fill="#2CB7F5" transform="translate(0,0)"/>
<path d="" fill="#28B7F9" transform="translate(0,0)"/>
<path d="" fill="#26B5F6" transform="translate(0,0)"/>
<path d="" fill="#27B6F8" transform="translate(0,0)"/>
<path d="" fill="#1DBFF9" transform="translate(0,0)"/>
<path d="" fill="#26B9F6" transform="translate(0,0)"/>
<path d="" fill="#22BCFD" transform="translate(0,0)"/>
<path d="" fill="#24B5F5" transform="translate(0,0)"/>
<path d="" fill="#21C2FB" transform="translate(0,0)"/>
<path d="" fill="#24C1FD" transform="translate(0,0)"/>
<path d="" fill="#1DC3FC" transform="translate(0,0)"/>
<path d="" fill="#1CBFFD" transform="translate(0,0)"/>
<path d="" fill="#20C2FF" transform="translate(0,0)"/>
<path d="" fill="#25C3FF" transform="translate(0,0)"/>
<path d="" fill="#1EC5FD" transform="translate(0,0)"/>
<path d="" fill="#22C5FD" transform="translate(0,0)"/>
<path d="" fill="#1FC6FE" transform="translate(0,0)"/>
<path d="" fill="#1BC4FD" transform="translate(0,0)"/>
<path d="" fill="#1EC6FE" transform="translate(0,0)"/>
<path d="" fill="#20C6FF" transform="translate(0,0)"/>
<path d="" fill="#1EC7FC" transform="translate(0,0)"/>
<path d="" fill="#22BFF7" transform="translate(0,0)"/>
<path d="" fill="#1FC8FD" transform="translate(0,0)"/>
<path d="" fill="#25C0F4" transform="translate(0,0)"/>
<path d="" fill="#25BFF5" transform="translate(0,0)"/>
<path d="" fill="#21C7F7" transform="translate(0,0)"/>
<path d="" fill="#1FCAFF" transform="translate(0,0)"/>
<path d="" fill="#28C1F3" transform="translate(0,0)"/>
<path d="" fill="#29C2F6" transform="translate(0,0)"/>
<path d="" fill="#1AC9FE" transform="translate(0,0)"/>
<path d="" fill="#29C1F5" transform="translate(0,0)"/>
<path d="" fill="#20CDFF" transform="translate(0,0)"/>
<path d="" fill="#1AC8FA" transform="translate(0,0)"/>
<path d="" fill="#22C6F9" transform="translate(0,0)"/>
<path d="" fill="#1CCEFC" transform="translate(0,0)"/>
<path d="" fill="#2AC1F3" transform="translate(0,0)"/>
<path d="" fill="#1ACEFD" transform="translate(0,0)"/>
<path d="" fill="#28C3F6" transform="translate(0,0)"/>
<path d="" fill="#1BCDFB" transform="translate(0,0)"/>
<path d="" fill="#1ACAFC" transform="translate(0,0)"/>
<path d="" fill="#23C9F6" transform="translate(0,0)"/>
<path d="" fill="#20CCF5" transform="translate(0,0)"/>
<path d="" fill="#25C8F6" transform="translate(0,0)"/>
<path d="" fill="#26C8F1" transform="translate(0,0)"/>
<path d="" fill="#20CBF8" transform="translate(0,0)"/>
<path d="" fill="#21CEF6" transform="translate(0,0)"/>
<path d="" fill="#25CFF6" transform="translate(0,0)"/>
<path d="" fill="#18D1FA" transform="translate(0,0)"/>
<path d="" fill="#1AD4FF" transform="translate(0,0)"/>
<path d="" fill="#14D4FF" transform="translate(0,0)"/>
<path d="" fill="#21CAF4" transform="translate(0,0)"/>
<path d="" fill="#25CBF1" transform="translate(0,0)"/>
<path d="" fill="#19D7FE" transform="translate(0,0)"/>
<path d="" fill="#1DD8FF" transform="translate(0,0)"/>
<path d="" fill="#20D2F4" transform="translate(0,0)"/>
<path d="" fill="#24D3F7" transform="translate(0,0)"/>
<path d="" fill="#1BDCFD" transform="translate(0,0)"/>
<path d="" fill="#1CCFF6" transform="translate(0,0)"/>
<path d="" fill="#1ED0F6" transform="translate(0,0)"/>
<path d="" fill="#1FD3F9" transform="translate(0,0)"/>
<path d="" fill="#1AD4F9" transform="translate(0,0)"/>
<path d="" fill="#1BD1F8" transform="translate(0,0)"/>
<path d="" fill="#1CD7F8" transform="translate(0,0)"/>
<path d="" fill="#20D0F0" transform="translate(0,0)"/>
<path d="" fill="#16D8F8" transform="translate(0,0)"/>
<path d="" fill="#1CD6F5" transform="translate(0,0)"/>
<path d="" fill="#1ED3EF" transform="translate(0,0)"/>
<path d="" fill="#1DD8F5" transform="translate(0,0)"/>
<path d="" fill="#1CD9F4" transform="translate(0,0)"/>
<path d="" fill="#4C5A5A" transform="translate(0,0)"/>
<path d="" fill="#18DDF9" transform="translate(0,0)"/>
<path d="" fill="#1BE1F8" transform="translate(0,0)"/>
<path d="" fill="#18E0F8" transform="translate(0,0)"/>
<path d="" fill="#17DFF5" transform="translate(0,0)"/>
<path d="" fill="#15DEF7" transform="translate(0,0)"/>
<path d="" fill="#14E0F9" transform="translate(0,0)"/>
<path d="" fill="#1ADEF7" transform="translate(0,0)"/>
<path d="" fill="#16DDF7" transform="translate(0,0)"/>
<path d="" fill="#1AE1F6" transform="translate(0,0)"/>
<path d="" fill="#3C6664" transform="translate(0,0)"/>
<path d="" fill="#10DBF5" transform="translate(0,0)"/>
<path d="" fill="#16E6F6" transform="translate(0,0)"/>
<path d="" fill="#435554" transform="translate(0,0)"/>
<path d="" fill="#35898E" transform="translate(0,0)"/>
<path d="" fill="#11E2FA" transform="translate(0,0)"/>
<path d="" fill="#3F5B5B" transform="translate(0,0)"/>
<path d="" fill="#424E4C" transform="translate(0,0)"/>
<path d="" fill="#16E1F3" transform="translate(0,0)"/>
<path d="" fill="#0CE5F9" transform="translate(0,0)"/>
<path d="" fill="#10E5FA" transform="translate(0,0)"/>
<path d="" fill="#19E6F5" transform="translate(0,0)"/>
<path d="" fill="#3B4D4C" transform="translate(0,0)"/>
<path d="" fill="#17E6F5" transform="translate(0,0)"/>
<path d="" fill="#1AE1F4" transform="translate(0,0)"/>
<path d="" fill="#385757" transform="translate(0,0)"/>
<path d="" fill="#14E6F9" transform="translate(0,0)"/>
<path d="" fill="#0FE5FA" transform="translate(0,0)"/>
<path d="" fill="#3A4747" transform="translate(0,0)"/>
<path d="" fill="#11E9F7" transform="translate(0,0)"/>
<path d="" fill="#12E8F7" transform="translate(0,0)"/>
<path d="" fill="#15E9F4" transform="translate(0,0)"/>
<path d="" fill="#10EDF7" transform="translate(0,0)"/>
<path d="" fill="#364C48" transform="translate(0,0)"/>
<path d="" fill="#10EDFA" transform="translate(0,0)"/>
<path d="" fill="#394343" transform="translate(0,0)"/>
<path d="" fill="#3C4343" transform="translate(0,0)"/>
<path d="" fill="#414544" transform="translate(0,0)"/>
<path d="" fill="#0AEDFA" transform="translate(0,0)"/>
<path d="" fill="#3E4343" transform="translate(0,0)"/>
<path d="" fill="#0FECF7" transform="translate(0,0)"/>
<path d="" fill="#11ECF8" transform="translate(0,0)"/>
<path d="" fill="#3B5050" transform="translate(0,0)"/>
<path d="" fill="#0EECF8" transform="translate(0,0)"/>
<path d="" fill="#0EE9F6" transform="translate(0,0)"/>
<path d="" fill="#0AEBF9" transform="translate(0,0)"/>
<path d="" fill="#0AF0F7" transform="translate(0,0)"/>
<path d="" fill="#0FECF8" transform="translate(0,0)"/>
<path d="" fill="#0DECF8" transform="translate(0,0)"/>
<path d="" fill="#0EECF6" transform="translate(0,0)"/>
<path d="" fill="#0DEAF6" transform="translate(0,0)"/>
<path d="" fill="#0BEEF9" transform="translate(0,0)"/>
<path d="" fill="#12F1F7" transform="translate(0,0)"/>
<path d="" fill="#0AF0FB" transform="translate(0,0)"/>
<path d="" fill="#3E4344" transform="translate(0,0)"/>
<path d="" fill="#0FF2F6" transform="translate(0,0)"/>
<path d="" fill="#18EDF4" transform="translate(0,0)"/>
<path d="" fill="#11F1F9" transform="translate(0,0)"/>
<path d="" fill="#13F1F8" transform="translate(0,0)"/>
<path d="" fill="#18EBF2" transform="translate(0,0)"/>
<path d="" fill="#464748" transform="translate(0,0)"/>
<path d="" fill="#0CEDF4" transform="translate(0,0)"/>
<path d="" fill="#424747" transform="translate(0,0)"/>
<path d="" fill="#18EAF4" transform="translate(0,0)"/>
<path d="" fill="#494B49" transform="translate(0,0)"/>
<path d="" fill="#444748" transform="translate(0,0)"/>
<path d="" fill="#444D4C" transform="translate(0,0)"/>
<path d="" fill="#444A49" transform="translate(0,0)"/>
</svg>
