<svg width="200" height="200" viewBox="0 0 200 200" fill="none" xmlns="http://www.w3.org/2000/svg">
  <defs>
    <linearGradient id="logoGradient" x1="0%" y1="0%" x2="0%" y2="100%">
      <stop offset="0%" style="stop-color:#00E5FF;stop-opacity:1" />
      <stop offset="100%" style="stop-color:#2196F3;stop-opacity:1" />
    </linearGradient>
  </defs>
  <path d="M100 20 C 60 20, 40 50, 40 80 C 40 110, 55 130, 70 150 C 80 165, 90 175, 100 185 C 110 175, 120 165, 130 150 C 145 130, 160 110, 160 80 C 160 50, 140 20, 100 20 Z M 100 140 C 85 125, 75 115, 75 95 C 75 80, 85 70, 100 70 C 115 70, 125 80, 125 95 C 125 115, 115 125, 100 140 Z" fill="url(#logoGradient)" />
  <path d="M100 75 C 90 75, 82 83, 82 93 C 82 108, 92 118, 100 127 C 108 118, 118 108, 118 93 C 118 83, 110 75, 100 75 Z" fill="white" opacity="0.9" />
</svg>
